<svg id="Layer_1" data-name="Layer 1" xmlns="http://www.w3.org/2000/svg" viewBox="0 0 720 540"><defs><style>.cls-1{fill:#76b900;}.cls-2,.cls-7{fill:#666;}.cls-2,.cls-4,.cls-5{opacity:0.6;}.cls-3{fill:#004831;}.cls-4,.cls-6{fill:none;stroke:#666;stroke-miterlimit:10;}.cls-8{fill:#fff;}</style></defs><g id="Artwork_46" data-name="Artwork 46"><rect class="cls-1" x="72.38" y="124.08" width="7.06" height="7.06"/><rect class="cls-1" x="82.98" y="124.08" width="7.06" height="7.06"/><rect class="cls-1" x="72.38" y="134.67" width="7.06" height="7.06"/><rect class="cls-1" x="82.98" y="134.67" width="7.06" height="7.06"/><rect class="cls-1" x="72.38" y="145.27" width="7.06" height="7.06"/><rect class="cls-1" x="82.98" y="145.27" width="7.06" height="7.06"/><rect class="cls-1" x="72.38" y="155.86" width="7.06" height="7.06"/><rect class="cls-1" x="72.38" y="166.46" width="7.06" height="7.06"/><rect class="cls-1" x="72.38" y="177.05" width="7.06" height="7.06"/><rect class="cls-1" x="72.38" y="187.64" width="7.06" height="7.06"/><rect class="cls-1" x="82.98" y="187.64" width="7.06" height="7.06"/><rect class="cls-1" x="72.38" y="198.24" width="7.06" height="7.06"/><rect class="cls-1" x="82.98" y="198.24" width="7.06" height="7.06"/><rect class="cls-1" x="72.38" y="208.83" width="7.06" height="7.06"/><rect class="cls-1" x="82.98" y="208.83" width="7.06" height="7.06"/><rect class="cls-1" x="93.57" y="124.08" width="7.06" height="7.06"/><rect class="cls-1" x="104.17" y="124.08" width="7.06" height="7.06"/><rect class="cls-1" x="93.57" y="134.67" width="7.06" height="7.06"/><rect class="cls-1" x="104.17" y="134.67" width="7.06" height="7.06"/><rect class="cls-1" x="93.57" y="145.27" width="7.06" height="7.06"/><rect class="cls-1" x="104.17" y="145.27" width="7.06" height="7.06"/><rect class="cls-1" x="93.57" y="187.64" width="7.06" height="7.06"/><rect class="cls-1" x="104.17" y="187.64" width="7.06" height="7.06"/><rect class="cls-1" x="93.57" y="198.24" width="7.06" height="7.06"/><rect class="cls-1" x="104.17" y="198.24" width="7.06" height="7.06"/><rect class="cls-1" x="93.57" y="208.83" width="7.06" height="7.06"/><rect class="cls-1" x="104.17" y="208.83" width="7.06" height="7.06"/><rect class="cls-1" x="114.76" y="124.08" width="7.06" height="7.06"/><rect class="cls-1" x="125.36" y="124.08" width="7.06" height="7.06"/><rect class="cls-1" x="114.76" y="134.67" width="7.06" height="7.06"/><rect class="cls-1" x="125.36" y="134.67" width="7.06" height="7.06"/><rect class="cls-1" x="114.76" y="145.27" width="7.06" height="7.06"/><rect class="cls-1" x="125.36" y="145.27" width="7.06" height="7.06"/><rect class="cls-1" x="114.76" y="187.64" width="7.06" height="7.06"/><rect class="cls-1" x="125.36" y="187.64" width="7.06" height="7.06"/><rect class="cls-1" x="114.76" y="198.24" width="7.06" height="7.06"/><rect class="cls-1" x="125.36" y="198.24" width="7.06" height="7.06"/><rect class="cls-1" x="114.76" y="208.83" width="7.06" height="7.06"/><rect class="cls-1" x="125.36" y="208.83" width="7.06" height="7.06"/><rect class="cls-1" x="135.95" y="124.08" width="7.06" height="7.06"/><rect class="cls-1" x="146.55" y="124.08" width="7.06" height="7.06"/><rect class="cls-1" x="135.95" y="134.67" width="7.06" height="7.06"/><rect class="cls-1" x="146.55" y="134.67" width="7.06" height="7.06"/><rect class="cls-1" x="135.95" y="145.27" width="7.06" height="7.06"/><rect class="cls-1" x="146.55" y="145.27" width="7.06" height="7.06"/><rect class="cls-1" x="82.98" y="155.86" width="7.06" height="7.06"/><rect class="cls-1" x="82.98" y="166.46" width="7.06" height="7.06"/><rect class="cls-1" x="82.98" y="177.05" width="7.06" height="7.06"/><rect class="cls-1" x="93.57" y="155.86" width="7.06" height="7.06"/><rect class="cls-1" x="104.17" y="155.86" width="7.06" height="7.06"/><rect class="cls-1" x="93.57" y="166.46" width="7.06" height="7.06"/><rect class="cls-1" x="104.17" y="166.46" width="7.06" height="7.06"/><rect class="cls-1" x="93.57" y="177.05" width="7.06" height="7.06"/><rect class="cls-1" x="104.17" y="177.05" width="7.06" height="7.06"/><rect class="cls-1" x="114.76" y="155.86" width="7.06" height="7.06"/><rect class="cls-1" x="125.36" y="155.86" width="7.06" height="7.06"/><rect class="cls-1" x="114.76" y="166.46" width="7.06" height="7.06"/><rect class="cls-1" x="125.36" y="166.46" width="7.06" height="7.06"/><rect class="cls-1" x="114.76" y="177.05" width="7.06" height="7.06"/><rect class="cls-1" x="125.36" y="177.05" width="7.06" height="7.06"/><rect class="cls-1" x="135.95" y="155.86" width="7.06" height="7.06"/><rect class="cls-1" x="146.55" y="155.86" width="7.06" height="7.06"/><rect class="cls-1" x="135.95" y="166.46" width="7.06" height="7.06"/><rect class="cls-1" x="146.55" y="166.46" width="7.06" height="7.06"/><rect class="cls-1" x="135.95" y="177.05" width="7.06" height="7.06"/><rect class="cls-1" x="146.55" y="177.05" width="7.06" height="7.06"/><rect class="cls-1" x="135.95" y="187.64" width="7.06" height="7.06"/><rect class="cls-1" x="146.55" y="187.64" width="7.06" height="7.06"/><rect class="cls-1" x="135.95" y="198.24" width="7.06" height="7.06"/><rect class="cls-1" x="146.55" y="198.24" width="7.06" height="7.06"/><rect class="cls-1" x="135.95" y="208.83" width="7.06" height="7.06"/><rect class="cls-1" x="157.14" y="124.08" width="7.06" height="7.06"/><rect class="cls-1" x="157.14" y="134.67" width="7.06" height="7.06"/><rect class="cls-1" x="157.14" y="145.27" width="7.06" height="7.06"/><rect class="cls-1" x="157.14" y="155.86" width="7.06" height="7.06"/><rect class="cls-1" x="157.14" y="166.46" width="7.06" height="7.06"/><rect class="cls-1" x="157.14" y="177.05" width="7.06" height="7.06"/><rect class="cls-1" x="157.14" y="187.64" width="7.06" height="7.06"/><rect class="cls-1" x="157.14" y="198.24" width="7.06" height="7.06"/><rect class="cls-1" x="157.14" y="208.83" width="7.06" height="7.06"/><rect class="cls-1" x="146.55" y="208.83" width="7.06" height="7.06"/><path class="cls-1" d="M182.72,234.42H53.86V105.55H182.72ZM62.65,225.63H173.93V114.35H62.65Z"/></g><g id="Artwork_46-2" data-name="Artwork 46"><rect class="cls-1" x="301.55" y="379.69" width="7.06" height="7.06"/><rect class="cls-1" x="312.14" y="379.69" width="7.06" height="7.06"/><rect class="cls-1" x="301.55" y="390.29" width="7.06" height="7.06"/><rect class="cls-1" x="312.14" y="390.29" width="7.06" height="7.06"/><rect class="cls-1" x="301.55" y="400.88" width="7.06" height="7.06"/><rect class="cls-1" x="312.14" y="400.88" width="7.06" height="7.06"/><rect class="cls-1" x="301.55" y="411.47" width="7.06" height="7.06"/><rect class="cls-1" x="301.55" y="422.07" width="7.06" height="7.06"/><rect class="cls-1" x="301.55" y="432.66" width="7.06" height="7.06"/><rect class="cls-1" x="301.55" y="443.26" width="7.06" height="7.06"/><rect class="cls-1" x="312.14" y="443.26" width="7.06" height="7.06"/><rect class="cls-1" x="301.55" y="453.85" width="7.06" height="7.06"/><rect class="cls-1" x="312.14" y="453.85" width="7.06" height="7.06"/><rect class="cls-1" x="301.55" y="464.45" width="7.06" height="7.06"/><rect class="cls-1" x="312.14" y="464.45" width="7.06" height="7.06"/><rect class="cls-1" x="322.74" y="379.69" width="7.06" height="7.06"/><rect class="cls-1" x="333.33" y="379.69" width="7.06" height="7.06"/><rect class="cls-1" x="322.74" y="390.29" width="7.06" height="7.06"/><rect class="cls-1" x="333.33" y="390.29" width="7.06" height="7.06"/><rect class="cls-1" x="322.74" y="400.88" width="7.06" height="7.06"/><rect class="cls-1" x="333.33" y="400.88" width="7.06" height="7.06"/><rect class="cls-1" x="322.74" y="443.26" width="7.06" height="7.06"/><rect class="cls-1" x="333.33" y="443.26" width="7.06" height="7.06"/><rect class="cls-1" x="322.74" y="453.85" width="7.06" height="7.06"/><rect class="cls-1" x="333.33" y="453.85" width="7.06" height="7.06"/><rect class="cls-1" x="322.74" y="464.45" width="7.06" height="7.06"/><rect class="cls-1" x="333.33" y="464.45" width="7.06" height="7.06"/><rect class="cls-1" x="343.92" y="379.69" width="7.06" height="7.06"/><rect class="cls-1" x="354.52" y="379.69" width="7.06" height="7.06"/><rect class="cls-1" x="343.92" y="390.29" width="7.06" height="7.06"/><rect class="cls-1" x="354.52" y="390.29" width="7.06" height="7.06"/><rect class="cls-1" x="343.92" y="400.88" width="7.06" height="7.06"/><rect class="cls-1" x="354.52" y="400.88" width="7.06" height="7.06"/><rect class="cls-1" x="343.92" y="443.26" width="7.06" height="7.06"/><rect class="cls-1" x="354.52" y="443.26" width="7.06" height="7.06"/><rect class="cls-1" x="343.92" y="453.85" width="7.06" height="7.06"/><rect class="cls-1" x="354.52" y="453.85" width="7.06" height="7.06"/><rect class="cls-1" x="343.92" y="464.45" width="7.06" height="7.06"/><rect class="cls-1" x="354.52" y="464.45" width="7.06" height="7.06"/><rect class="cls-1" x="365.11" y="379.69" width="7.06" height="7.06"/><rect class="cls-1" x="375.71" y="379.69" width="7.06" height="7.06"/><rect class="cls-1" x="365.11" y="390.29" width="7.06" height="7.06"/><rect class="cls-1" x="375.71" y="390.29" width="7.06" height="7.06"/><rect class="cls-1" x="365.11" y="400.88" width="7.06" height="7.06"/><rect class="cls-1" x="375.71" y="400.88" width="7.06" height="7.06"/><rect class="cls-1" x="312.14" y="411.47" width="7.06" height="7.06"/><rect class="cls-1" x="312.14" y="422.07" width="7.06" height="7.06"/><rect class="cls-1" x="312.14" y="432.66" width="7.06" height="7.06"/><rect class="cls-1" x="322.74" y="411.47" width="7.06" height="7.06"/><rect class="cls-1" x="333.33" y="411.47" width="7.06" height="7.06"/><rect class="cls-1" x="322.74" y="422.07" width="7.06" height="7.06"/><rect class="cls-1" x="333.33" y="422.07" width="7.06" height="7.06"/><rect class="cls-1" x="322.74" y="432.66" width="7.06" height="7.06"/><rect class="cls-1" x="333.33" y="432.66" width="7.06" height="7.06"/><rect class="cls-1" x="343.92" y="411.47" width="7.06" height="7.06"/><rect class="cls-1" x="354.52" y="411.47" width="7.06" height="7.06"/><rect class="cls-1" x="343.92" y="422.07" width="7.06" height="7.06"/><rect class="cls-1" x="354.52" y="422.07" width="7.06" height="7.06"/><rect class="cls-1" x="343.92" y="432.66" width="7.06" height="7.06"/><rect class="cls-1" x="354.52" y="432.66" width="7.06" height="7.06"/><rect class="cls-1" x="365.11" y="411.47" width="7.06" height="7.06"/><rect class="cls-1" x="375.71" y="411.47" width="7.06" height="7.06"/><rect class="cls-1" x="365.11" y="422.07" width="7.06" height="7.06"/><rect class="cls-1" x="375.71" y="422.07" width="7.06" height="7.06"/><rect class="cls-1" x="365.11" y="432.66" width="7.06" height="7.06"/><rect class="cls-1" x="375.71" y="432.66" width="7.06" height="7.06"/><rect class="cls-1" x="365.11" y="443.26" width="7.06" height="7.06"/><rect class="cls-1" x="375.71" y="443.26" width="7.06" height="7.06"/><rect class="cls-1" x="365.11" y="453.85" width="7.06" height="7.06"/><rect class="cls-1" x="375.71" y="453.85" width="7.06" height="7.06"/><rect class="cls-1" x="365.11" y="464.45" width="7.06" height="7.06"/><rect class="cls-1" x="386.3" y="379.69" width="7.06" height="7.06"/><rect class="cls-1" x="386.3" y="390.29" width="7.06" height="7.06"/><rect class="cls-1" x="386.3" y="400.88" width="7.06" height="7.06"/><rect class="cls-1" x="386.3" y="411.47" width="7.06" height="7.06"/><rect class="cls-1" x="386.3" y="422.07" width="7.06" height="7.06"/><rect class="cls-1" x="386.3" y="432.66" width="7.06" height="7.06"/><rect class="cls-1" x="386.3" y="443.26" width="7.06" height="7.06"/><rect class="cls-1" x="386.3" y="453.85" width="7.06" height="7.06"/><rect class="cls-1" x="386.3" y="464.45" width="7.06" height="7.06"/><rect class="cls-1" x="375.71" y="464.45" width="7.06" height="7.06"/><path class="cls-1" d="M411.89,490H283V361.17H411.89Zm-120.07-8.79H403.1V370H291.82Z"/></g><path class="cls-2" d="M417.79,234.42H288.92V105.55H417.79Zm-120.07-8.79H409V114.35H297.72Z"/><rect class="cls-3" x="307.45" y="124.08" width="28.25" height="17.66"/><rect class="cls-3" x="339.23" y="124.08" width="28.25" height="17.66"/><rect class="cls-3" x="371.01" y="124.08" width="28.25" height="17.66"/><rect class="cls-3" x="307.45" y="145.03" width="28.25" height="17.66"/><rect class="cls-3" x="339.23" y="145.03" width="28.25" height="17.66"/><rect class="cls-3" x="371.01" y="145.03" width="28.25" height="17.66"/><line class="cls-4" x1="307.45" y1="215.9" x2="399.27" y2="215.9"/><line class="cls-4" x1="307.45" y1="212.37" x2="399.27" y2="212.37"/><line class="cls-4" x1="307.45" y1="208.83" x2="399.27" y2="208.83"/><line class="cls-4" x1="307.45" y1="205.3" x2="399.27" y2="205.3"/><line class="cls-4" x1="307.45" y1="201.77" x2="399.27" y2="201.77"/><line class="cls-4" x1="307.45" y1="198.24" x2="399.27" y2="198.24"/><line class="cls-4" x1="307.45" y1="194.71" x2="399.27" y2="194.71"/><line class="cls-4" x1="307.45" y1="191.18" x2="399.27" y2="191.18"/><line class="cls-4" x1="307.45" y1="187.64" x2="399.27" y2="187.64"/><line class="cls-4" x1="307.45" y1="184.11" x2="399.27" y2="184.11"/><line class="cls-4" x1="307.45" y1="180.58" x2="399.27" y2="180.58"/><line class="cls-4" x1="307.45" y1="177.05" x2="399.27" y2="177.05"/><line class="cls-4" x1="307.45" y1="173.52" x2="399.27" y2="173.52"/><line class="cls-4" x1="307.45" y1="169.99" x2="399.27" y2="169.99"/><line class="cls-4" x1="307.45" y1="166.46" x2="399.27" y2="166.46"/><path class="cls-2" d="M182.72,490H53.86V361.17H182.72ZM62.65,481.24H173.93V370H62.65Z"/><rect class="cls-3" x="72.38" y="379.69" width="28.25" height="17.66"/><rect class="cls-3" x="104.17" y="379.69" width="28.25" height="17.66"/><rect class="cls-3" x="135.95" y="379.69" width="28.25" height="17.66"/><rect class="cls-3" x="72.38" y="400.65" width="28.25" height="17.66"/><rect class="cls-3" x="104.17" y="400.65" width="28.25" height="17.66"/><rect class="cls-3" x="135.95" y="400.65" width="28.25" height="17.66"/><line class="cls-4" x1="72.38" y1="471.51" x2="164.2" y2="471.51"/><line class="cls-4" x1="72.38" y1="467.98" x2="164.2" y2="467.98"/><line class="cls-4" x1="72.38" y1="464.45" x2="164.2" y2="464.45"/><line class="cls-4" x1="72.38" y1="460.92" x2="164.2" y2="460.92"/><line class="cls-4" x1="72.38" y1="457.38" x2="164.2" y2="457.38"/><line class="cls-4" x1="72.38" y1="453.85" x2="164.2" y2="453.85"/><line class="cls-4" x1="72.38" y1="450.32" x2="164.2" y2="450.32"/><line class="cls-4" x1="72.38" y1="446.79" x2="164.2" y2="446.79"/><line class="cls-4" x1="72.38" y1="443.26" x2="164.2" y2="443.26"/><line class="cls-4" x1="72.38" y1="439.73" x2="164.2" y2="439.73"/><line class="cls-4" x1="72.38" y1="436.2" x2="164.2" y2="436.2"/><line class="cls-4" x1="72.38" y1="432.66" x2="164.2" y2="432.66"/><line class="cls-4" x1="72.38" y1="429.13" x2="164.2" y2="429.13"/><line class="cls-4" x1="72.38" y1="425.6" x2="164.2" y2="425.6"/><line class="cls-4" x1="72.38" y1="422.07" x2="164.2" y2="422.07"/><rect class="cls-2" x="550.07" y="105.55" width="15.56" height="128.86"/><rect class="cls-2" x="550.17" y="361.17" width="15.56" height="128.86"/><g class="cls-5"><line class="cls-6" x1="182.72" y1="133.2" x2="281.75" y2="133.2"/><polygon class="cls-7" points="280.29 138.19 288.92 133.2 280.29 128.22 280.29 138.19"/></g><rect class="cls-1" x="207.82" y="105.55" width="53.49" height="27.35"/><path class="cls-8" d="M226.17,123.14a3.55,3.55,0,0,1-2.57.94h-3.51v-10h3.51a3.55,3.55,0,0,1,2.57.94c1.08,1.08,1,2.54,1,4S227.25,122.06,226.17,123.14Zm-1-7a2.17,2.17,0,0,0-1.7-.67h-1.83v7.26h1.83a2.17,2.17,0,0,0,1.7-.67c.51-.58.53-1.66.53-3S225.65,116.71,225.14,116.13Z"/><path class="cls-8" d="M233.07,124.08v-.65a2.32,2.32,0,0,1-1.89.73,2.51,2.51,0,0,1-1.9-.64,2.17,2.17,0,0,1-.56-1.53c0-1.19.82-2,2.45-2h1.88v-.5c0-.9-.45-1.33-1.56-1.33a1.65,1.65,0,0,0-1.55.69l-.94-.89a2.92,2.92,0,0,1,2.55-1c1.94,0,2.92.83,2.92,2.44v4.75Zm0-3.14h-1.67c-.84,0-1.28.38-1.28,1s.41,1,1.31,1a1.69,1.69,0,0,0,1.33-.41,1.42,1.42,0,0,0,.31-1Z"/><path class="cls-8" d="M238.78,124.08a1.85,1.85,0,0,1-1.94-2v-3.91H236V117.1h.82v-2.16h1.43v2.16h1.37v1.09h-1.37V122c0,.52.25.83.78.83h.59v1.22Z"/><path class="cls-8" d="M245.24,124.08v-.65a2.33,2.33,0,0,1-1.89.73,2.55,2.55,0,0,1-1.91-.64,2.21,2.21,0,0,1-.56-1.53c0-1.19.83-2,2.45-2h1.88v-.5c0-.9-.45-1.33-1.55-1.33a1.66,1.66,0,0,0-1.56.69l-.94-.89a2.94,2.94,0,0,1,2.55-1c1.95,0,2.93.83,2.93,2.44v4.75Zm0-3.14h-1.67c-.84,0-1.27.38-1.27,1s.41,1,1.3,1a1.67,1.67,0,0,0,1.33-.41,1.42,1.42,0,0,0,.31-1Z"/><g class="cls-5"><line class="cls-6" x1="417.79" y1="133.36" x2="542.89" y2="133.36"/><polygon class="cls-7" points="541.44 138.34 550.07 133.36 541.44 128.37 541.44 138.34"/></g><rect class="cls-1" x="445.53" y="105.55" width="75.13" height="27.35"/><path class="cls-8" d="M458.37,124.08v-6.67l-2.3,4.86H455l-2.36-4.86v6.67h-1.51v-10h1.51l2.92,6.21,2.86-6.21h1.51v10Z"/><path class="cls-8" d="M466.25,120.16H464v3.92h-1.52v-10h3.79a3,3,0,1,1,0,6.06Zm-.09-4.7H464v3.32h2.18a1.66,1.66,0,1,0,0-3.32Z"/><path class="cls-8" d="M471.27,124.08v-10h1.51v10Z"/><path class="cls-8" d="M474.08,126.49v-1h8v1Z"/><path class="cls-8" d="M483.38,124.08v-10h1.51v10Z"/><path class="cls-8" d="M489.62,124.16a3.92,3.92,0,0,1-3-1l.94-.94a2.73,2.73,0,0,0,2,.74c.87,0,1.56-.31,1.56-1,0-.47-.27-.78-.95-.84l-1.14-.1c-1.33-.11-2.1-.71-2.1-2s1.19-2.17,2.68-2.17a3.92,3.92,0,0,1,2.63.8l-.9.91a2.66,2.66,0,0,0-1.75-.52c-.85,0-1.29.38-1.29.91s.23.74,1,.81l1.13.1c1.33.12,2.11.75,2.11,2C492.58,123.39,491.32,124.16,489.62,124.16Z"/><path class="cls-8" d="M495.36,120.94a1.75,1.75,0,0,0,1.81,2,2.12,2.12,0,0,0,1.72-.73l.91.85a3.31,3.31,0,0,1-2.66,1.11c-1.78,0-3.19-.94-3.19-3.64,0-2.3,1.19-3.63,3-3.63s3,1.4,3,3.42v.63Zm3-2a1.55,1.55,0,0,0-2.81,0,2.31,2.31,0,0,0-.19,1h3.2A2.31,2.31,0,0,0,498.36,119Z"/><path class="cls-8" d="M506.19,124.08v-4.33c0-1.11-.63-1.58-1.43-1.58a1.41,1.41,0,0,0-1.47,1.58v4.33h-1.43V117h1.4v.71a2.55,2.55,0,0,1,1.89-.8,2.44,2.44,0,0,1,1.75.65,2.59,2.59,0,0,1,.72,2v4.54Z"/><path class="cls-8" d="M513.89,124.08v-.76a2.21,2.21,0,0,1-1.88.84,2.5,2.5,0,0,1-1.74-.63,6,6,0,0,1,0-6,2.45,2.45,0,0,1,1.73-.63,2.19,2.19,0,0,1,1.86.8V114.1h1.43v10Zm-1.5-5.91c-1.29,0-1.49,1.09-1.49,2.35s.2,2.37,1.49,2.37,1.47-1.11,1.47-2.37S513.68,118.17,512.39,118.17Z"/><g class="cls-5"><line class="cls-6" x1="411.89" y1="388.97" x2="543" y2="388.97"/><polygon class="cls-7" points="541.54 393.96 550.17 388.97 541.54 383.98 541.54 393.96"/></g><rect class="cls-1" x="423.26" y="361.17" width="107.61" height="27.35"/><path class="cls-8" d="M437.71,379.69v-4.33a1.38,1.38,0,0,0-1.43-1.58,1.41,1.41,0,0,0-1.47,1.58v4.33h-1.43v-7.1h1.4v.71a2.55,2.55,0,0,1,1.89-.8,2.44,2.44,0,0,1,1.75.65,2.59,2.59,0,0,1,.72,2v4.54Z"/><path class="cls-8" d="M444.08,379.69h-1.16l-2.61-7.1h1.51l1.68,5,1.67-5h1.51Z"/><path class="cls-8" d="M450.08,379.77a3.89,3.89,0,0,1-3-1l.94-.94a2.74,2.74,0,0,0,2,.75c.87,0,1.56-.31,1.56-1,0-.48-.27-.79-.95-.85l-1.14-.09c-1.33-.12-2.1-.72-2.1-2s1.19-2.18,2.68-2.18a3.92,3.92,0,0,1,2.63.8l-.9.91a2.73,2.73,0,0,0-1.75-.51c-.85,0-1.29.37-1.29.91s.23.74,1,.81l1.12.1c1.34.11,2.12.74,2.12,2C453,379,451.78,379.77,450.08,379.77Z"/><path class="cls-8" d="M459.07,379.69v-4.36a1.37,1.37,0,0,0-1.43-1.55,1.39,1.39,0,0,0-1.44,1.55v4.36h-1.43v-10h1.43v3.58a2.46,2.46,0,0,1,1.84-.8,2.36,2.36,0,0,1,2.46,2.61v4.58Z"/><path class="cls-8" d="M471.35,379.69v-4.33a1.38,1.38,0,0,0-1.43-1.58,1.41,1.41,0,0,0-1.47,1.51v4.4H467v-4.33a1.38,1.38,0,0,0-1.42-1.58,1.41,1.41,0,0,0-1.47,1.58v4.33H462.7v-7.1h1.4v.71a2.54,2.54,0,0,1,1.89-.8,2.27,2.27,0,0,1,2,1,2.68,2.68,0,0,1,2.22-1,2.57,2.57,0,0,1,1.8.65,2.64,2.64,0,0,1,.75,2v4.54Z"/><path class="cls-8" d="M476,376.55a1.75,1.75,0,0,0,1.81,2,2.13,2.13,0,0,0,1.73-.73l.91.86a3.34,3.34,0,0,1-2.67,1.1c-1.78,0-3.19-.93-3.19-3.64,0-2.29,1.19-3.63,3-3.63s3,1.41,3,3.42v.63Zm3-2a1.55,1.55,0,0,0-2.81,0,2.33,2.33,0,0,0-.19,1h3.2A2.32,2.32,0,0,0,479,374.59Z"/><path class="cls-8" d="M491.18,379.69v-4.33a1.38,1.38,0,0,0-1.43-1.58,1.41,1.41,0,0,0-1.47,1.51v4.4h-1.43v-4.33a1.38,1.38,0,0,0-1.43-1.58,1.41,1.41,0,0,0-1.47,1.58v4.33h-1.43v-7.1h1.4v.71a2.58,2.58,0,0,1,1.89-.8,2.27,2.27,0,0,1,2,1,2.7,2.7,0,0,1,2.23-1,2.56,2.56,0,0,1,1.79.65,2.61,2.61,0,0,1,.76,2v4.54Z"/><path class="cls-8" d="M493.66,382.1v-1h8v1Z"/><path class="cls-8" d="M507.81,379.14a2.39,2.39,0,0,1-1.73.63,2.2,2.2,0,0,1-1.86-.81v3.6h-1.43v-10h1.4v.76a2.19,2.19,0,0,1,1.88-.85,2.44,2.44,0,0,1,1.74.64,4.23,4.23,0,0,1,.8,3A4.28,4.28,0,0,1,507.81,379.14Zm-2.1-5.36c-1.29,0-1.49,1.09-1.49,2.35s.2,2.37,1.49,2.37,1.47-1.11,1.47-2.37S507,373.78,505.71,373.78Z"/><path class="cls-8" d="M514.82,379.69V379a2.55,2.55,0,0,1-1.89.79,2.44,2.44,0,0,1-1.75-.64,2.59,2.59,0,0,1-.72-2v-4.54h1.43v4.33a1.38,1.38,0,0,0,1.43,1.58,1.41,1.41,0,0,0,1.47-1.58v-4.33h1.43v7.1Z"/><path class="cls-8" d="M520.6,379.69a1.85,1.85,0,0,1-2-2v-3.91h-.81v-1.09h.81v-2.16h1.43v2.16h1.38v1.09h-1.38v3.84a.73.73,0,0,0,.79.82h.59v1.22Z"/><g class="cls-5"><line class="cls-6" x1="411.89" y1="421.84" x2="543" y2="421.84"/><polygon class="cls-7" points="541.54 426.83 550.17 421.84 541.54 416.86 541.54 426.83"/></g><rect class="cls-1" x="423.26" y="394.04" width="107.61" height="27.35"/><path class="cls-8" d="M437.71,412.56v-4.32c0-1.11-.63-1.59-1.43-1.59a1.42,1.42,0,0,0-1.47,1.59v4.32h-1.43v-7.1h1.4v.72a2.52,2.52,0,0,1,1.89-.8,2.48,2.48,0,0,1,1.75.64,2.62,2.62,0,0,1,.72,2v4.53Z"/><path class="cls-8" d="M444.08,412.56h-1.16l-2.61-7.1h1.51l1.68,5,1.67-5h1.51Z"/><path class="cls-8" d="M450.08,412.65a3.92,3.92,0,0,1-3-1l.94-.94a2.73,2.73,0,0,0,2,.74c.87,0,1.56-.31,1.56-1,0-.48-.27-.79-.95-.84l-1.14-.1c-1.33-.11-2.1-.71-2.1-2s1.19-2.17,2.68-2.17a3.87,3.87,0,0,1,2.63.8l-.9.91a2.68,2.68,0,0,0-1.75-.52c-.85,0-1.29.38-1.29.91s.23.74,1,.81l1.12.1c1.34.11,2.12.74,2.12,2C453,411.88,451.78,412.65,450.08,412.65Z"/><path class="cls-8" d="M459.07,412.56v-4.35a1.37,1.37,0,0,0-1.43-1.56,1.39,1.39,0,0,0-1.44,1.56v4.35h-1.43v-10h1.43v3.59a2.43,2.43,0,0,1,1.84-.8,2.35,2.35,0,0,1,2.46,2.6v4.58Z"/><path class="cls-8" d="M471.35,412.56v-4.32c0-1.11-.63-1.59-1.43-1.59a1.41,1.41,0,0,0-1.47,1.52v4.39H467v-4.32c0-1.11-.63-1.59-1.42-1.59a1.42,1.42,0,0,0-1.47,1.59v4.32H462.7v-7.1h1.4v.72a2.54,2.54,0,0,1,1.89-.8,2.29,2.29,0,0,1,2,1,2.67,2.67,0,0,1,2.22-1,2.61,2.61,0,0,1,1.8.64,2.68,2.68,0,0,1,.75,2v4.53Z"/><path class="cls-8" d="M476,409.43a1.75,1.75,0,0,0,1.81,2,2.16,2.16,0,0,0,1.73-.73l.91.85a3.35,3.35,0,0,1-2.67,1.11c-1.78,0-3.19-.94-3.19-3.64,0-2.3,1.19-3.63,3-3.63s3,1.4,3,3.42v.63Zm3-2a1.55,1.55,0,0,0-2.81,0,2.31,2.31,0,0,0-.19,1h3.2A2.31,2.31,0,0,0,479,407.47Z"/><path class="cls-8" d="M491.18,412.56v-4.32c0-1.11-.63-1.59-1.43-1.59a1.41,1.41,0,0,0-1.47,1.52v4.39h-1.43v-4.32c0-1.11-.63-1.59-1.43-1.59a1.42,1.42,0,0,0-1.47,1.59v4.32h-1.43v-7.1h1.4v.72a2.58,2.58,0,0,1,1.89-.8,2.29,2.29,0,0,1,2,1,2.69,2.69,0,0,1,2.23-1,2.6,2.6,0,0,1,1.79.64,2.65,2.65,0,0,1,.76,2v4.53Z"/><path class="cls-8" d="M493.66,415v-1h8v1Z"/><path class="cls-8" d="M507.81,412a2.44,2.44,0,0,1-1.73.63,2.23,2.23,0,0,1-1.86-.81v3.6h-1.43v-10h1.4v.76a2.18,2.18,0,0,1,1.88-.84,2.48,2.48,0,0,1,1.74.63,4.25,4.25,0,0,1,.8,3A4.31,4.31,0,0,1,507.81,412Zm-2.1-5.37c-1.29,0-1.49,1.1-1.49,2.36s.2,2.36,1.49,2.36,1.47-1.1,1.47-2.36S507,406.65,505.71,406.65Z"/><path class="cls-8" d="M514.82,412.56v-.71a2.55,2.55,0,0,1-1.89.8,2.44,2.44,0,0,1-1.75-.65,2.59,2.59,0,0,1-.72-2v-4.54h1.43v4.33c0,1.11.63,1.58,1.43,1.58a1.41,1.41,0,0,0,1.47-1.58v-4.33h1.43v7.1Z"/><path class="cls-8" d="M520.6,412.56a1.85,1.85,0,0,1-2-2v-3.91h-.81v-1.09h.81v-2.16h1.43v2.16h1.38v1.09h-1.38v3.84a.73.73,0,0,0,.79.83h.59v1.21Z"/><g class="cls-5"><line class="cls-6" x1="411.89" y1="454.72" x2="543" y2="454.72"/><polygon class="cls-7" points="541.54 459.7 550.17 454.72 541.54 449.73 541.54 459.7"/></g><rect class="cls-1" x="423.26" y="426.92" width="107.61" height="27.35"/><path class="cls-8" d="M437.71,445.44v-4.33c0-1.11-.63-1.58-1.43-1.58a1.41,1.41,0,0,0-1.47,1.58v4.33h-1.43v-7.1h1.4v.71a2.55,2.55,0,0,1,1.89-.8,2.44,2.44,0,0,1,1.75.65,2.59,2.59,0,0,1,.72,2v4.54Z"/><path class="cls-8" d="M444.08,445.44h-1.16l-2.61-7.1h1.51l1.68,5,1.67-5h1.51Z"/><path class="cls-8" d="M450.08,445.52a3.89,3.89,0,0,1-3-1l.94-.94a2.73,2.73,0,0,0,2,.74c.87,0,1.56-.3,1.56-1,0-.47-.27-.78-.95-.84l-1.14-.1c-1.33-.11-2.1-.71-2.1-2s1.19-2.17,2.68-2.17a3.92,3.92,0,0,1,2.63.8l-.9.91a2.68,2.68,0,0,0-1.75-.52c-.85,0-1.29.38-1.29.91s.23.75,1,.82l1.12.09c1.34.12,2.12.75,2.12,2C453,444.75,451.78,445.52,450.08,445.52Z"/><path class="cls-8" d="M459.07,445.44v-4.36a1.36,1.36,0,0,0-1.43-1.55,1.39,1.39,0,0,0-1.44,1.55v4.36h-1.43v-10h1.43v3.59a2.46,2.46,0,0,1,1.84-.8,2.36,2.36,0,0,1,2.46,2.61v4.58Z"/><path class="cls-8" d="M471.35,445.44v-4.33c0-1.11-.63-1.58-1.43-1.58a1.41,1.41,0,0,0-1.47,1.51v4.4H467v-4.33c0-1.11-.63-1.58-1.42-1.58a1.41,1.41,0,0,0-1.47,1.58v4.33H462.7v-7.1h1.4v.71a2.54,2.54,0,0,1,1.89-.8,2.27,2.27,0,0,1,2,1,2.68,2.68,0,0,1,2.22-1,2.57,2.57,0,0,1,1.8.65,2.64,2.64,0,0,1,.75,2v4.54Z"/><path class="cls-8" d="M476,442.3a1.75,1.75,0,0,0,1.81,2,2.13,2.13,0,0,0,1.73-.73l.91.86a3.37,3.37,0,0,1-2.67,1.1c-1.78,0-3.19-.94-3.19-3.64,0-2.3,1.19-3.63,3-3.63s3,1.4,3,3.42v.63Zm3-2a1.55,1.55,0,0,0-2.81,0,2.33,2.33,0,0,0-.19,1h3.2A2.32,2.32,0,0,0,479,440.34Z"/><path class="cls-8" d="M491.18,445.44v-4.33c0-1.11-.63-1.58-1.43-1.58a1.41,1.41,0,0,0-1.47,1.51v4.4h-1.43v-4.33c0-1.11-.63-1.58-1.43-1.58a1.41,1.41,0,0,0-1.47,1.58v4.33h-1.43v-7.1h1.4v.71a2.58,2.58,0,0,1,1.89-.8,2.27,2.27,0,0,1,2,1,2.7,2.7,0,0,1,2.23-1,2.56,2.56,0,0,1,1.79.65,2.61,2.61,0,0,1,.76,2v4.54Z"/><path class="cls-8" d="M493.66,447.85v-1h8v1Z"/><path class="cls-8" d="M507.81,444.89a2.44,2.44,0,0,1-1.73.63,2.2,2.2,0,0,1-1.86-.81v3.6h-1.43v-10h1.4v.75a2.21,2.21,0,0,1,1.88-.84,2.48,2.48,0,0,1,1.74.63,6,6,0,0,1,0,6Zm-2.1-5.36c-1.29,0-1.49,1.09-1.49,2.35s.2,2.37,1.49,2.37,1.47-1.11,1.47-2.37S507,439.53,505.71,439.53Z"/><path class="cls-8" d="M514.82,445.44v-.72a2.52,2.52,0,0,1-1.89.8,2.48,2.48,0,0,1-1.75-.64,2.61,2.61,0,0,1-.72-2v-4.53h1.43v4.32c0,1.11.63,1.59,1.43,1.59a1.42,1.42,0,0,0,1.47-1.59v-4.32h1.43v7.1Z"/><path class="cls-8" d="M520.6,445.44a1.85,1.85,0,0,1-2-2v-3.9h-.81v-1.1h.81v-2.15h1.43v2.15h1.38v1.1h-1.38v3.83a.73.73,0,0,0,.79.83h.59v1.22Z"/><g class="cls-5"><line class="cls-6" x1="550.17" y1="487.59" x2="419.06" y2="487.59"/><polygon class="cls-7" points="420.52 482.61 411.89 487.59 420.52 492.58 420.52 482.61"/></g><rect class="cls-1" x="423.26" y="459.79" width="107.61" height="27.35"/><path class="cls-8" d="M437.71,478.31V474a1.38,1.38,0,0,0-1.43-1.58,1.41,1.41,0,0,0-1.47,1.58v4.33h-1.43v-7.1h1.4v.71a2.55,2.55,0,0,1,1.89-.79,2.44,2.44,0,0,1,1.75.64,2.6,2.6,0,0,1,.72,2v4.54Z"/><path class="cls-8" d="M444.08,478.31h-1.16l-2.61-7.1h1.51l1.68,5,1.67-5h1.51Z"/><path class="cls-8" d="M450.08,478.4a3.89,3.89,0,0,1-3-1l.94-.94a2.74,2.74,0,0,0,2,.75c.87,0,1.56-.31,1.56-1,0-.48-.27-.79-.95-.84l-1.14-.1c-1.33-.11-2.1-.72-2.1-2s1.19-2.17,2.68-2.17a3.91,3.91,0,0,1,2.63.79l-.9.92a2.68,2.68,0,0,0-1.75-.52c-.85,0-1.29.37-1.29.91s.23.74,1,.81l1.12.1c1.34.11,2.12.74,2.12,2C453,477.63,451.78,478.4,450.08,478.4Z"/><path class="cls-8" d="M459.07,478.31V474a1.37,1.37,0,0,0-1.43-1.56A1.39,1.39,0,0,0,456.2,474v4.35h-1.43v-10h1.43v3.58a2.45,2.45,0,0,1,1.84-.79,2.35,2.35,0,0,1,2.46,2.6v4.58Z"/><path class="cls-8" d="M471.35,478.31V474a1.38,1.38,0,0,0-1.43-1.58,1.41,1.41,0,0,0-1.47,1.51v4.4H467V474a1.38,1.38,0,0,0-1.42-1.58,1.41,1.41,0,0,0-1.47,1.58v4.33H462.7v-7.1h1.4v.71a2.57,2.57,0,0,1,1.89-.79,2.29,2.29,0,0,1,2,1,2.67,2.67,0,0,1,2.22-1,2.57,2.57,0,0,1,1.8.64,2.66,2.66,0,0,1,.75,2v4.54Z"/><path class="cls-8" d="M476,475.17a1.75,1.75,0,0,0,1.81,2,2.13,2.13,0,0,0,1.73-.73l.91.86a3.35,3.35,0,0,1-2.67,1.11c-1.78,0-3.19-.94-3.19-3.65,0-2.29,1.19-3.62,3-3.62s3,1.4,3,3.41v.63Zm3-2a1.55,1.55,0,0,0-2.81,0,2.4,2.4,0,0,0-.19,1h3.2A2.39,2.39,0,0,0,479,473.21Z"/><path class="cls-8" d="M491.18,478.31V474a1.38,1.38,0,0,0-1.43-1.58,1.41,1.41,0,0,0-1.47,1.51v4.4h-1.43V474a1.38,1.38,0,0,0-1.43-1.58A1.41,1.41,0,0,0,484,474v4.33h-1.43v-7.1h1.4v.71a2.61,2.61,0,0,1,1.89-.79,2.29,2.29,0,0,1,2,1,2.69,2.69,0,0,1,2.23-1,2.56,2.56,0,0,1,1.79.64,2.63,2.63,0,0,1,.76,2v4.54Z"/><path class="cls-8" d="M493.66,480.72v-1h8v1Z"/><path class="cls-8" d="M507.81,477.77a2.44,2.44,0,0,1-1.73.63,2.21,2.21,0,0,1-1.86-.82v3.6h-1.43v-10h1.4V472a2.18,2.18,0,0,1,1.88-.84,2.43,2.43,0,0,1,1.74.63,4.24,4.24,0,0,1,.8,3A4.32,4.32,0,0,1,507.81,477.77Zm-2.1-5.37c-1.29,0-1.49,1.09-1.49,2.35s.2,2.37,1.49,2.37,1.47-1.1,1.47-2.37S507,472.4,505.71,472.4Z"/><path class="cls-8" d="M514.82,478.31v-.71a2.55,2.55,0,0,1-1.89.8,2.44,2.44,0,0,1-1.75-.65,2.59,2.59,0,0,1-.72-2v-4.54h1.43v4.33a1.38,1.38,0,0,0,1.43,1.58,1.41,1.41,0,0,0,1.47-1.58v-4.33h1.43v7.1Z"/><path class="cls-8" d="M520.6,478.31a1.85,1.85,0,0,1-2-2v-3.91h-.81v-1.09h.81v-2.16h1.43v2.16h1.38v1.09h-1.38v3.84a.72.72,0,0,0,.79.82h.59v1.22Z"/><g class="cls-5"><line class="cls-6" x1="550.07" y1="206.62" x2="424.96" y2="206.62"/><polygon class="cls-7" points="426.42 201.63 417.79 206.62 426.42 211.6 426.42 201.63"/></g><rect class="cls-1" x="445.53" y="207.07" width="75.13" height="27.35"/><path class="cls-8" d="M458.37,225.59v-6.67l-2.3,4.86H455l-2.36-4.86v6.67h-1.51v-10h1.51l2.92,6.21,2.86-6.21h1.51v10Z"/><path class="cls-8" d="M466.25,221.67H464v3.92h-1.52v-10h3.79a3,3,0,1,1,0,6.06Zm-.09-4.7H464v3.32h2.18a1.66,1.66,0,1,0,0-3.32Z"/><path class="cls-8" d="M471.27,225.59v-10h1.51v10Z"/><path class="cls-8" d="M474.08,228v-1h8v1Z"/><path class="cls-8" d="M483.38,225.59v-10h1.51v10Z"/><path class="cls-8" d="M489.62,225.67a3.89,3.89,0,0,1-3-1l.94-.94a2.73,2.73,0,0,0,2,.74c.87,0,1.56-.3,1.56-1,0-.47-.27-.78-.95-.84l-1.14-.1c-1.33-.11-2.1-.71-2.1-2s1.19-2.17,2.68-2.17a3.92,3.92,0,0,1,2.63.8l-.9.91a2.66,2.66,0,0,0-1.75-.52c-.85,0-1.29.38-1.29.91s.23.75,1,.82l1.13.09c1.33.12,2.11.75,2.11,2C492.58,224.9,491.32,225.67,489.62,225.67Z"/><path class="cls-8" d="M495.36,222.45a1.75,1.75,0,0,0,1.81,2,2.09,2.09,0,0,0,1.72-.73l.91.86a3.34,3.34,0,0,1-2.66,1.1c-1.78,0-3.19-.94-3.19-3.64,0-2.3,1.19-3.63,3-3.63s3,1.4,3,3.42v.63Zm3-2a1.55,1.55,0,0,0-2.81,0,2.33,2.33,0,0,0-.19,1h3.2A2.32,2.32,0,0,0,498.36,220.49Z"/><path class="cls-8" d="M506.19,225.59v-4.33c0-1.11-.63-1.58-1.43-1.58a1.41,1.41,0,0,0-1.47,1.58v4.33h-1.43v-7.1h1.4v.71a2.55,2.55,0,0,1,1.89-.8,2.44,2.44,0,0,1,1.75.65,2.59,2.59,0,0,1,.72,2v4.54Z"/><path class="cls-8" d="M513.89,225.59v-.76a2.18,2.18,0,0,1-1.88.84,2.5,2.5,0,0,1-1.74-.63,6,6,0,0,1,0-6,2.45,2.45,0,0,1,1.73-.63,2.19,2.19,0,0,1,1.86.8v-3.59h1.43v10Zm-1.5-5.91c-1.29,0-1.49,1.09-1.49,2.35s.2,2.37,1.49,2.37,1.47-1.11,1.47-2.37S513.68,219.68,512.39,219.68Z"/><rect class="cls-1" x="417.78" y="156.31" width="76.91" height="27.35" transform="translate(-0.71 1.92) rotate(-0.24)"/><path class="cls-8" d="M434.92,174.91l0-6.66-2.27,4.87H431.5l-2.38-4.85,0,6.67h-1.51l0-10h1.51l2.94,6.2,2.83-6.22h1.51l0,10Z"/><path class="cls-8" d="M442.78,171h-2.26v3.92H439l0-10h3.78a3,3,0,1,1,0,6.05Zm-.1-4.69h-2.19l0,3.32h2.18a1.66,1.66,0,1,0,0-3.32Z"/><path class="cls-8" d="M447.82,174.86l0-10h1.52l0,10Z"/><path class="cls-8" d="M450.65,177.26v-1l8,0v1Z"/><path class="cls-8" d="M468.07,174.77h-1.31l-2.06-7-2,7h-1.32l-2.65-10h1.6l1.77,7.12,2-7.13h1.22l2,7.12L469,164.8h1.6Z"/><path class="cls-8" d="M475.22,174.74v-.64a2.36,2.36,0,0,1-1.89.74,2.51,2.51,0,0,1-1.9-.64,2.16,2.16,0,0,1-.57-1.53c0-1.19.82-2,2.44-2h1.88v-.5c0-.9-.46-1.33-1.56-1.33a1.68,1.68,0,0,0-1.56.7l-.94-.88a2.93,2.93,0,0,1,2.55-1c1.94,0,2.93.82,2.93,2.43l0,4.75Zm0-3.13h-1.66c-.84,0-1.28.39-1.27,1s.41,1,1.3,1a1.67,1.67,0,0,0,1.33-.41,1.39,1.39,0,0,0,.3-1Z"/><path class="cls-8" d="M478.74,166.23v-1.52h1.51v1.51Zm.08,8.5,0-7.1h1.43l0,7.1Z"/><path class="cls-8" d="M484.63,174.7a1.84,1.84,0,0,1-1.95-2l0-3.91h-.81v-1.09h.81v-2.16h1.43v2.16h1.38v1.1h-1.37v3.84c0,.52.26.83.79.82h.59v1.22Z"/><rect class="cls-1" x="565.68" y="156.31" width="97.29" height="27.35" transform="matrix(1, 0, 0, 1, -0.71, 2.59)"/><path class="cls-8" d="M576.06,175l0-10h1.51l.05,10Z"/><path class="cls-8" d="M584.34,175l0-4.33a1.38,1.38,0,0,0-1.43-1.58,1.43,1.43,0,0,0-1.47,1.59l0,4.33H580l0-7.1h1.4v.71a2.55,2.55,0,0,1,1.89-.8,2.48,2.48,0,0,1,1.76.64,2.61,2.61,0,0,1,.72,2l0,4.53Z"/><path class="cls-8" d="M590.08,174.93a1.86,1.86,0,0,1-2-2v-3.91h-.82V168h.81V165.8h1.43V168h1.37V169h-1.38l0,3.84a.73.73,0,0,0,.79.83h.59v1.22Z"/><path class="cls-8" d="M593.75,171.77a1.74,1.74,0,0,0,1.81,2,2.12,2.12,0,0,0,1.72-.73l.92.85a3.36,3.36,0,0,1-2.66,1.12c-1.78,0-3.2-.93-3.21-3.63,0-2.3,1.18-3.63,3-3.64s3,1.39,3,3.4v.63Zm3-2a1.56,1.56,0,0,0-2.82,0,2.18,2.18,0,0,0-.18,1l3.2,0A2.31,2.31,0,0,0,596.74,169.8Z"/><path class="cls-8" d="M604.14,169.43a1.33,1.33,0,0,0-1.07-.47,1.45,1.45,0,0,0-1.4,1.6v4.32h-1.42l0-7.1h1.41v.78a2.37,2.37,0,0,1,1.89-.87,2.19,2.19,0,0,1,1.69.67Z"/><path class="cls-8" d="M608.77,174.93c-1.6,0-3.17-1-3.18-3.63s1.55-3.63,3.15-3.64a2.89,2.89,0,0,1,2.34,1l-1,.95a1.62,1.62,0,0,0-1.36-.66,1.59,1.59,0,0,0-1.31.63,2.59,2.59,0,0,0-.41,1.73,2.65,2.65,0,0,0,.42,1.73,1.61,1.61,0,0,0,1.32.63,1.7,1.7,0,0,0,1.36-.68l1,.93A2.9,2.9,0,0,1,608.77,174.93Z"/><path class="cls-8" d="M617.25,174.05a2.86,2.86,0,0,1-2.13.85,2.78,2.78,0,0,1-2.11-.83,5,5,0,0,1,0-5.59,3.09,3.09,0,0,1,4.25,0,5.05,5.05,0,0,1,0,5.58Zm-1.1-4.74a1.47,1.47,0,0,0-1-.4,1.42,1.42,0,0,0-1,.41,2.78,2.78,0,0,0-.48,2,2.75,2.75,0,0,0,.5,1.94,1.42,1.42,0,0,0,1,.42,1.49,1.49,0,0,0,1-.42,2.78,2.78,0,0,0,.48-2A2.72,2.72,0,0,0,616.15,169.31Z"/><path class="cls-8" d="M624.35,174.78l0-4.33a1.37,1.37,0,0,0-1.43-1.57,1.42,1.42,0,0,0-1.47,1.59l0,4.32H620l0-7.1h1.4v.72a2.49,2.49,0,0,1,1.88-.81,2.46,2.46,0,0,1,1.76.64,2.59,2.59,0,0,1,.72,2l0,4.54Z"/><path class="cls-8" d="M632.3,174.75l0-4.33c0-1.11-.63-1.58-1.43-1.58a1.41,1.41,0,0,0-1.46,1.59v4.33H628l0-7.11h1.41v.71a2.54,2.54,0,0,1,1.89-.8,2.45,2.45,0,0,1,1.75.63,2.59,2.59,0,0,1,.72,2l0,4.54Z"/><path class="cls-8" d="M637,171.59a1.75,1.75,0,0,0,1.82,2,2.12,2.12,0,0,0,1.72-.73l.91.85a3.3,3.3,0,0,1-2.65,1.11c-1.78,0-3.2-.92-3.21-3.62,0-2.3,1.17-3.64,3-3.64s3,1.38,3,3.4v.63Zm3-2a1.44,1.44,0,0,0-1.4-.89,1.48,1.48,0,0,0-1.41.9,2.18,2.18,0,0,0-.18,1l3.19,0A2.16,2.16,0,0,0,640,169.62Z"/><path class="cls-8" d="M646.27,174.77c-1.59,0-3.17-1-3.18-3.63s1.56-3.63,3.15-3.64a3,3,0,0,1,2.35,1l-1,.95a1.67,1.67,0,0,0-1.36-.66,1.62,1.62,0,0,0-1.32.63,2.71,2.71,0,0,0-.41,1.73,2.64,2.64,0,0,0,.43,1.73,1.59,1.59,0,0,0,1.32.63,1.64,1.64,0,0,0,1.35-.68l1,.93A2.92,2.92,0,0,1,646.27,174.77Z"/><path class="cls-8" d="M652.38,174.66a1.85,1.85,0,0,1-2-2l0-3.91h-.81V167.7h.81v-2.16h1.43v2.16h1.37v1.1h-1.38l0,3.84a.72.72,0,0,0,.79.82h.59v1.22Z"/><rect class="cls-1" x="565.79" y="411.92" width="97.29" height="27.35" transform="matrix(1, 0, 0, 1, -1.79, 2.59)"/><path class="cls-8" d="M576.16,430.6l0-10h1.51l0,10Z"/><path class="cls-8" d="M584.44,430.56l0-4.33a1.37,1.37,0,0,0-1.43-1.57,1.42,1.42,0,0,0-1.47,1.59l0,4.33h-1.43l0-7.1h1.4v.72a2.53,2.53,0,0,1,1.89-.81,2.48,2.48,0,0,1,1.76.64,2.59,2.59,0,0,1,.72,2l0,4.54Z"/><path class="cls-8" d="M590.18,430.54a1.86,1.86,0,0,1-2-2v-3.91h-.82v-1.09h.81v-2.16h1.43v2.16H591v1.09h-1.37v3.84a.73.73,0,0,0,.79.82H591v1.22Z"/><path class="cls-8" d="M593.85,427.39a1.75,1.75,0,0,0,1.81,2,2.13,2.13,0,0,0,1.72-.74l.92.85a3.33,3.33,0,0,1-2.66,1.12c-1.78,0-3.2-.92-3.21-3.63,0-2.3,1.18-3.63,3-3.64s3,1.39,3,3.41v.63Zm3-2a1.56,1.56,0,0,0-2.82,0,2.24,2.24,0,0,0-.18,1H597A2.32,2.32,0,0,0,596.84,425.41Z"/><path class="cls-8" d="M604.24,425a1.33,1.33,0,0,0-1.07-.47,1.46,1.46,0,0,0-1.4,1.61v4.31h-1.42l0-7.11h1.4v.77a2.34,2.34,0,0,1,1.89-.86,2.15,2.15,0,0,1,1.69.66Z"/><path class="cls-8" d="M608.87,430.54c-1.6,0-3.17-1-3.18-3.62s1.55-3.64,3.15-3.65a2.92,2.92,0,0,1,2.34,1l-1,1a1.67,1.67,0,0,0-1.37-.67,1.62,1.62,0,0,0-1.31.63,2.59,2.59,0,0,0-.41,1.73,2.63,2.63,0,0,0,.42,1.73,1.61,1.61,0,0,0,1.32.63,1.67,1.67,0,0,0,1.36-.68l1,.94A2.92,2.92,0,0,1,608.87,430.54Z"/><path class="cls-8" d="M617.35,429.67a2.9,2.9,0,0,1-2.13.85,2.85,2.85,0,0,1-2.11-.83,5,5,0,0,1,0-5.59,3.11,3.11,0,0,1,4.25,0,5.07,5.07,0,0,1,0,5.59Zm-1.1-4.75a1.47,1.47,0,0,0-1-.4,1.42,1.42,0,0,0-1,.41,2.74,2.74,0,0,0-.49,1.95,2.84,2.84,0,0,0,.5,1.95,1.52,1.52,0,0,0,2.09,0,2.78,2.78,0,0,0,.48-1.95A2.74,2.74,0,0,0,616.25,424.92Z"/><path class="cls-8" d="M624.45,430.39l0-4.32c0-1.11-.63-1.58-1.43-1.58a1.42,1.42,0,0,0-1.47,1.59l0,4.33h-1.43l0-7.1h1.4V424a2.66,2.66,0,0,1,3.64-.17,2.59,2.59,0,0,1,.72,2l0,4.54Z"/><path class="cls-8" d="M632.4,430.36V426c0-1.1-.64-1.58-1.44-1.57a1.4,1.4,0,0,0-1.46,1.59v4.32h-1.43l0-7.1h1.4V424a2.51,2.51,0,0,1,1.89-.81,2.46,2.46,0,0,1,1.75.64,2.59,2.59,0,0,1,.72,2l0,4.53Z"/><path class="cls-8" d="M637.06,427.2a1.76,1.76,0,0,0,1.82,2,2.13,2.13,0,0,0,1.72-.74l.91.85a3.34,3.34,0,0,1-2.65,1.12c-1.78,0-3.2-.93-3.21-3.63,0-2.3,1.17-3.63,3-3.64s3,1.39,3,3.4v.63Zm3-2a1.46,1.46,0,0,0-1.4-.89,1.48,1.48,0,0,0-1.41.9,2.18,2.18,0,0,0-.18,1h3.19A2.18,2.18,0,0,0,640.05,425.23Z"/><path class="cls-8" d="M646.37,430.39c-1.59,0-3.17-1-3.18-3.63s1.56-3.64,3.15-3.64a2.92,2.92,0,0,1,2.35,1l-1,1a1.66,1.66,0,0,0-1.36-.67A1.57,1.57,0,0,0,645,425a2.62,2.62,0,0,0-.42,1.72,2.72,2.72,0,0,0,.43,1.74,1.7,1.7,0,0,0,2.67-.06l1,.94A3,3,0,0,1,646.37,430.39Z"/><path class="cls-8" d="M652.48,430.28a1.86,1.86,0,0,1-2-2V424.4h-.82v-1.09h.81v-2.16h1.43v2.15h1.37v1.09h-1.38l0,3.83a.73.73,0,0,0,.79.83h.59v1.22Z"/><g class="cls-5"><line class="cls-6" x1="288.92" y1="206.77" x2="189.9" y2="206.77"/><polygon class="cls-7" points="191.36 201.78 182.72 206.77 191.36 211.76 191.36 201.78"/></g><rect class="cls-1" x="207.82" y="207.07" width="53.49" height="27.35"/><path class="cls-8" d="M226.17,224.69a3.55,3.55,0,0,1-2.57.94h-3.51v-10h3.51a3.55,3.55,0,0,1,2.57.94c1.08,1.08,1,2.54,1,4S227.25,223.61,226.17,224.69Zm-1-7a2.17,2.17,0,0,0-1.7-.67h-1.83v7.26h1.83a2.14,2.14,0,0,0,1.7-.68c.51-.57.53-1.65.53-3S225.65,218.26,225.14,217.68Z"/><path class="cls-8" d="M233.07,225.63V225a2.32,2.32,0,0,1-1.89.73,2.51,2.51,0,0,1-1.9-.64,2.17,2.17,0,0,1-.56-1.53c0-1.19.82-2,2.45-2h1.88V221c0-.9-.45-1.33-1.56-1.33a1.65,1.65,0,0,0-1.55.69l-.94-.89a2.92,2.92,0,0,1,2.55-1c1.94,0,2.92.83,2.92,2.44v4.75Zm0-3.14h-1.67c-.84,0-1.28.38-1.28,1s.41,1,1.31,1a1.69,1.69,0,0,0,1.33-.41,1.42,1.42,0,0,0,.31-1.05Z"/><path class="cls-8" d="M238.78,225.63a1.85,1.85,0,0,1-1.94-2v-3.91H236v-1.09h.82v-2.16h1.43v2.16h1.37v1.09h-1.37v3.84c0,.52.25.83.78.83h.59v1.22Z"/><path class="cls-8" d="M245.24,225.63V225a2.33,2.33,0,0,1-1.89.73,2.55,2.55,0,0,1-1.91-.64,2.21,2.21,0,0,1-.56-1.53c0-1.19.83-2,2.45-2h1.88V221c0-.9-.45-1.33-1.55-1.33a1.66,1.66,0,0,0-1.56.69l-.94-.89a2.94,2.94,0,0,1,2.55-1c1.95,0,2.93.83,2.93,2.44v4.75Zm0-3.14h-1.67c-.84,0-1.27.38-1.27,1s.41,1,1.3,1a1.67,1.67,0,0,0,1.33-.41,1.42,1.42,0,0,0,.31-1.05Z"/><path class="cls-3" d="M350.82,75.6V58.47L344.91,71H342l-6-12.49V75.6H332.1V50H336l7.48,16,7.35-16h3.89V75.6Z"/><path class="cls-3" d="M371.09,65.52h-5.83V75.6h-3.89V50h9.72c5,0,8.2,3.31,8.2,7.78S376.09,65.52,371.09,65.52Zm-.22-12.06h-5.61V62h5.61c2.7,0,4.54-1.54,4.54-4.24S373.57,53.46,370.87,53.46Z"/><path class="cls-3" d="M384,75.6V50h3.89V75.6Z"/><path class="cls-3" d="M288.84,335.08l-11.84-18v18h-3.89V309.45h3.57l11.84,18v-18h3.89v25.63Z"/><path class="cls-3" d="M307.38,335.08h-3l-8.42-25.63h4l5.9,18.65,5.9-18.65h4.11Z"/><path class="cls-3" d="M326.21,335.3c-3.85,0-6.62-.9-9.07-3.38l2.59-2.56a8.47,8.47,0,0,0,6.55,2.45c3.35,0,5.29-1.44,5.29-3.93a3.45,3.45,0,0,0-1-2.66,4.5,4.5,0,0,0-2.81-1.08l-3-.43a8.79,8.79,0,0,1-4.86-2,6.39,6.39,0,0,1-1.88-4.9c0-4.46,3.24-7.52,8.57-7.52a10.68,10.68,0,0,1,8,2.91L332,314.6a7.53,7.53,0,0,0-5.58-2c-3,0-4.68,1.73-4.68,4a3,3,0,0,0,1,2.37,5.65,5.65,0,0,0,2.88,1.19l2.91.43a8.49,8.49,0,0,1,4.79,1.91,6.73,6.73,0,0,1,2.09,5.26C335.43,332.49,331.57,335.3,326.21,335.3Z"/><path class="cls-3" d="M354.94,335.08V323.89h-10.4v11.19h-3.89V309.45h3.89V320.4h10.4V309.45h3.89v25.63Z"/><path class="cls-3" d="M384.24,335.08V318l-5.9,12.49h-2.88l-6-12.49v17.13h-3.89V309.45h3.89l7.49,15.95,7.34-15.95h3.89v25.63Z"/><path class="cls-3" d="M394.79,335.08V309.45h16.38V313H398.68v7.48h10.65v3.46H398.68v7.7h12.49v3.49Z"/><path class="cls-3" d="M435.22,335.08V318l-5.91,12.49h-2.88l-6-12.49v17.13H416.5V309.45h3.89l7.48,15.95,7.35-15.95h3.89v25.63Z"/></svg>